# xmcd
#
# Track frame offsets: 
#        150
#        18029
#        32628
#        45739
#        57490
#        73040
#        89250
#        100176
#        116256
#        128415
#        144216
#        156828
#        172096
#        185395
#        201392
#        214415
#        227665
#        242080
#        256494
#        271098
#        283191
#
# Disc length: 4006 seconds
#
# Revision: 0
# Processed by: cddbd v1.5.2PL0 Copyright (c) Steve Scherf et al.
# Submitted via: ExactAudioCopyFreeDBPlugin 1.0
#
DISCID=2a0fa415
DTITLE=Dobie Gray - Drift Away - Loving Arms
DYEAR=2011
DGENRE=
TTITLE0=Drift Away
TTITLE1=The Time I Love You The Most
TTITLE2=L.A. Lady
TTITLE3=We Had It All
TTITLE4=Now That I'm Without You
TTITLE5=Rockin' Chair
TTITLE6=Lay Back
TTITLE7=City Stars
TTITLE8=Sweet Lovin' Woman
TTITLE9=Cado Queen
TTITLE10=Eddie's Song
TTITLE11=Good Old Song
TTITLE12=You And Me
TTITLE13=I Never Had It So Good
TTITLE14=Lovin' The Easy Way
TTITLE15=Loving Arms
TTITLE16=Reachin' For The Feeling
TTITLE17=There's A Honky Tonk Angel (Who'll Take Me Back In)
TTITLE18=Mississippi Rolling Stone
TTITLE19=Love Is On The Line
TTITLE20=Rose
EXTD=
EXTT0=
EXTT1=
EXTT2=
EXTT3=
EXTT4=
EXTT5=
EXTT6=
EXTT7=
EXTT8=
EXTT9=
EXTT10=
EXTT11=
EXTT12=
EXTT13=
EXTT14=
EXTT15=
EXTT16=
EXTT17=
EXTT18=
EXTT19=
EXTT20=
PLAYORDER=
